<?xml version="1.0" encoding="utf-8"?><svg xmlns="http://www.w3.org/2000/svg" xmlns:xlink="http://www.w3.org/1999/xlink"><symbol viewBox="0 0 12 20" id="arrow-left" xmlns="http://www.w3.org/2000/svg"><path d="M1.153 9.057l8.19-8.19a1.332 1.332 0 0 1 1.453-.29 1.332 1.332 0 0 1 .723 1.742 1.332 1.332 0 0 1-.289.433L3.982 10l7.247 7.247a1.335 1.335 0 0 1 0 1.886 1.334 1.334 0 0 1-1.886 0l-8.19-8.19a1.332 1.332 0 0 1 0-1.886h.001z"/></symbol><symbol viewBox="0 0 20 20" id="arrow-up" xmlns="http://www.w3.org/2000/svg"><g data-name="Livello 2"><g data-name="icons"><g data-name="arrow-circle-up-mini"><path d="M20 10a10 10 0 1 0-10 10 10 10 0 0 0 10-10zM2 10a8 8 0 1 1 8 8 8.01 8.01 0 0 1-8-8z"/><path d="M12 15v-5h3l-5-6-5 6h3v5h4z"/></g></g></g></symbol><symbol fill="none" viewBox="0 0 113 88" id="brands--alfa-bank" xmlns="http://www.w3.org/2000/svg"><path d="M56.647.038c3.996 0 5.251 2.868 6.299 5.74a85058.03 85058.03 0 0 1 11.135 30.57c.084.239.031.634-.34.771l-6.056 2.358a.582.582 0 0 1-.743-.35c-.111-.297-2.347-6.507-2.599-7.207H48.965c-.252.696-2.511 6.923-2.617 7.207-.106.284-.429.474-.743.35s-5.733-2.234-6.06-2.358a.61.61 0 0 1-.336-.771c.38-1.068 10.604-29.108 11.126-30.57 1.012-2.823 2.316-5.74 6.312-5.74zM38.391 51.033a.589.589 0 0 0-.579.598v6.657c0 .332.261.598.579.598h36.511a.589.589 0 0 0 .579-.598v-6.657a.586.586 0 0 0-.579-.598H38.391zM56.616 9.346l-5.203 15.655h10.485L56.682 9.346h-.066zm21.71 70.824c0 1.41-.778 2.332-2.21 2.332-.566 0-1.03 0-1.768-.2v-4.264c.323-.053.999-.16 1.768-.133 1.454.058 2.21.745 2.21 2.265zm2.94-.213c0-2.611-1.529-4.41-4.734-4.41-.782 0-1.331.075-2.184.279l-.004-3.759c.526-.075 1.437-.138 2.427-.138.942 0 2.139.049 3.183.177l.071-2.176c-1.185-.266-2.913-.43-4.252-.43-1.322 0-3.377.332-4.354.594l-.004 13.891c1.529.554 3.01.816 4.544.816 3.492-.004 5.309-1.857 5.309-4.845l-.002.001zm-33.568-.758c0 1.937-.765 3.187-2.033 3.187-.535 0-.818-.027-1.419-.226v-5.815c.659-.319 1.017-.315 1.547-.315 1.273.005 1.905 1.055 1.905 3.169zm-9.649.067c0-2.114.637-3.231 1.901-3.231.535 0 .889-.005 1.547.315v5.815c-.601.2-.88.226-1.414.226-1.445 0-2.034-1.183-2.034-3.125zm6.197 8.719V84.2c.349.204 1.048.51 2.223.51 2.338 0 4.058-1.946 4.058-5.51 0-3.838-1.711-5.474-4.526-5.474-.712 0-1.18.071-1.759.346v-4.521h-2.749v4.521c-.579-.275-1.043-.346-1.759-.346-2.816 0-4.526 1.707-4.526 5.541 0 3.564 1.547 5.443 4.058 5.443 1.18 0 1.879-.306 2.228-.51v3.785h2.754-.002zm-20.744-3.453v-10.15c-1.516-.452-2.683-.643-4.204-.643-1.52 0-2.657.195-4.177.643v5.199c0 1.414-.027 1.839-.177 2.292-.15.399-.354.882-.915 1.25l.756 1.622c2.219-.625 3.05-1.596 3.05-4.667v-3.821c.734-.106.88-.133 1.459-.133.588 0 .712.027 1.441.133v8.275h2.767zm33.917-2.23c-.61.213-1.008.261-1.485.261-.99 0-1.547-.39-1.547-1.409 0-1.055.707-1.414 2.078-1.414.332 0 .663.049.818.106v.754c-.004.824.04 1.356.137 1.702h-.001zm3.452 1.219c-.725-1.108-.915-1.764-.915-3.16v-2.837c0-1.534-.181-2.097-.584-2.655-.561-.793-1.49-1.126-3.214-1.126-1.215 0-2.413.129-3.554.421l.411 2.035c.774-.106 1.587-.204 2.166-.204 1.83 0 2.042.27 2.042 1.64v.514a5.234 5.234 0 0 0-1.397-.191c-2.763 0-4.217 1.352-4.217 3.581 0 2.092 1.552 3.236 3.452 3.236.712 0 1.445-.133 2.029-.368.358-.155.508-.239.968-.545.27.403.822.816 1.043.886l1.768-1.228.002.001zm27.198-1.219c-.61.213-1.008.261-1.485.261-.99 0-1.552-.39-1.552-1.409 0-1.055.712-1.414 2.078-1.414.332 0 .663.049.813.106v.754c0 .824.049 1.356.146 1.702zm3.514 1.219c-.734-1.108-.919-1.764-.919-3.16v-2.837c0-1.534-.177-2.097-.583-2.655-.561-.793-1.494-1.126-3.222-1.126-1.216 0-2.409.129-3.55.421l.411 2.035c.765-.106 1.582-.204 2.17-.204 1.821 0 2.033.27 2.033 1.64v.514a5.194 5.194 0 0 0-1.388-.191c-2.758 0-4.217 1.352-4.217 3.581 0 2.092 1.556 3.236 3.452 3.236.712 0 1.441-.133 2.024-.368.354-.155.508-.239.964-.545.274.403.822.816 1.048.886l1.777-1.227zm-60.288-2.637c0 1.037-.367 1.755-1.693 1.755-.446 0-.628 0-1.207-.164v-3.041c.72-.142.782-.164 1.207-.164 1.264 0 1.693.622 1.693 1.614zm-5.662-6.981l-.013 10.075a10.55 10.55 0 0 0 4.027.802c2.935 0 4.504-1.52 4.504-4.025 0-2.265-1.388-3.67-3.987-3.67-.663 0-1.048.089-1.768.261v-3.448h-2.763v.005zm76.038 10.629V73.996h-2.763v3.985h-3.13v-3.985H93.02v10.536h2.758v-4.299h3.13v4.299h2.763zm11.329 0s-1.503-3.222-1.87-3.954c-.42-.829-.8-1.401-1.649-1.6v-.049c.566-.111 1.017-.457 1.508-1.507.477-1.028.614-1.25.893-1.494.274-.248.645-.155.645-.155l.137-1.915a6.876 6.876 0 0 0-1.286-.027c-.747.044-1.136.253-1.499.629-.287.284-.486.714-.729 1.206l-.729 1.507c-.266.554-.394.798-1.105.798h-.465v-3.98h-2.771v10.536h2.771v-4.299l.376-.009c.787 0 .924.191 1.344 1.028.491.993 1.428 3.276 1.428 3.276H113v.009zm-102.913 0h3.183L8.461 69.807a5.684 5.684 0 0 0-1.803-.279c-.729 0-.986.097-1.56.279L.001 84.532h3.05s.407-1.29.906-2.89h5.269l.861 2.89zm-5.353-5.359s.88-2.948 1.017-3.413c.354-1.201.884-3.089.884-3.089h.088s.486 1.963.809 3.076c.124.434.964 3.431.964 3.431H4.734v-.005zm60.96-1.68a1.769 1.769 0 0 0 0 3.538c.968 0 1.759-.785 1.759-1.769 0-.975-.791-1.769-1.759-1.769z" fill="#EE3524"/></symbol><symbol overflow="visible" viewBox="0 0 300 106.755" id="brands--amway" xmlns="http://www.w3.org/2000/svg"><path fill="none" d="M0 0h300v106.755H0z"/><path fill="#ED174C" d="M4.887 102.588s166.108-40.807 289.18-12.059l.38-1.328S187.059 57.489 6.95 96.116"/><path fill="#004B85" d="M84.401 22.51v6.764c.612-1.354 1.39-3.19 3.478-4.928 2.261-1.931 5.565-2.997 8.785-2.997 1.647 0 3.3.294 4.948.873 5.13 1.931 6.609 5.987 7.217 7.724 4.002-7.435 10.345-8.495 13.734-8.495 4.17 0 7.824 1.548 10.258 3.961 4.345 4.249 4.518 8.879 4.518 20.475v26.657h-12.773V48.878c0-8.019-.174-9.661-1.48-11.781-1.39-2.319-3.392-2.807-5.306-2.807-3.474 0-5.211 2.512-5.473 2.901-1.394 2.414-1.394 6.568-1.394 10.624v24.727H98.139V47.334c0-5.409 0-7.824-1.306-10.048-.955-1.638-2.869-2.996-5.214-2.996a6.768 6.768 0 0 0-3.305.875c-3.739 2.121-3.824 5.794-3.824 15.261v22.117H71.708V22.51m116.451 0h13.035l-13.035 50.032h-11.916l-7.564-33.803-7.471 33.803h-12.081l-13.04-50.032h13.04l6.867 31.295 7.04-31.295h11.299l6.959 31.295m47.397 18.737h12.521V22.415h-12.26v6.47c-2.256-4.828-6.169-7.63-11.125-7.63-8.516 0-19.646 7.342-19.646 27.045 0 15.647 7.995 25.307 18.689 25.307 7.302 0 10.256-4.25 11.819-6.569m-.655-20.092c0 4.543-.608 8.889-3.304 12.174-2.261 2.604-4.78 2.801-5.564 2.801-2.52 0-5.388-1.547-7.13-5.896-1.039-2.509-1.39-5.505-1.39-8.596 0-3.863.528-7.824 2.696-11.009 1.563-2.225 3.997-3.669 6.348-3.669 1.909 0 3.823.96 5.128 2.508 1.65 1.838 3.216 5.217 3.216 11.687z"/><path fill="#004B85" d="M270.719 22.51h12.988l-14.293 49.646c-1.044 3.478-2.691 9.179-5.215 11.979-2.349 2.512-5.13 3.673-15.474 3.673-1.479 0-2.084-.101-3.39-.195V76.504h3.39c1.218 0 4.086 0 5.388-1.253 1.044-.873 1.914-2.996 1.914-5.027 0-1.06-.524-2.997-.956-4.25L241.162 22.51h13.909l8.17 33.708M35.066 4.196L13.604 72.542h15.765l4.005-14.521h20.128L57.6 72.542h15.854L51.096 4.196m-7.927 15.009l6.859 26.33H36.674l6.495-26.33z"/></symbol><symbol fill="none" viewBox="0 0 201 67" id="brands--coca-cola" xmlns="http://www.w3.org/2000/svg"><path d="M167.119 56.832l-.619.549c-.879.786-1.784 1.628-2.877 1.207-.301-.11-.514-.512-.565-.824-.049-2.251.964-4.336 1.947-6.366l.252-.531c2.827-4.72 6.113-10.282 10.939-14.142.813-.587 1.696-1.08 2.627-.695.214.201.464.549.464.896 0 .11-.098.403-.154.494-1.348 2.178-2.632 4.465-3.88 6.66-2.44 4.337-4.97 8.819-8.134 12.753v-.001zM140.97 45.708c-.185.129-3.445-.97-4.075-3.988-.534-2.599 1.255-4.63 2.987-5.654.743-.586 1.863-.786 2.684-.495.762.513.969 1.428.969 2.415 0 .605-.081 1.227-.151 1.794l-.016.128a24.37 24.37 0 0 1-2.398 5.8zm-12.454 12.277c-.332-.494-.443-1.034-.454-1.618-.063-3.587 3.796-10.012 6.521-13.512h.006c1.142 2.5 3.727 4.107 5.288 4.784-1.939 4.318-8.587 13.566-11.36 10.346h-.001zm47.054.637c-.645.439-1.552.102-1.213-.904.844-2.561 4.201-7.782 4.201-7.782l9.349-16.582h-6.404c-.304.5-.955 1.648-.955 1.648-.297-.494-1.183-1.591-1.547-1.828-1.565-.989-3.86-.521-5.444.375-6.885 4.026-11.908 11.98-15.87 18.182 0 0-4.17 6.895-6.485 7.408-1.807.147-1.621-2.288-1.542-2.855.698-4.099 2.321-7.996 3.956-11.527a88.612 88.612 0 0 0 10.569-8.635c7.484-7.154 13.794-15.26 14.716-17.071 0 0-.998.201-2.177.238-5.758 8.032-17.541 19.706-21.113 21.443 1.583-3.806 11.807-21.974 20.508-30.664l1.369-1.318c2.117-2.067 4.311-4.19 6.02-4.537.181-.018.413 0 .614.421.076 1.61-.523 2.799-1.21 4.153l-.964 1.976s1.365-.256 2.261-.55c1.04-1.957 2.192-4.153 1.767-6.769-.142-.842-.751-1.482-1.547-1.628-2.595-.494-5.424 1.426-7.7 2.982l-.092.054c-11.7 9.166-21.58 22.377-30.218 40.417-.626.475-3.045 1.043-3.456.768.853-1.756 1.927-4.117 2.465-6.678.093-.732.179-1.482.179-2.214 0-1.575-.378-3.056-1.789-4.081-1.654-.823-3.698-.439-5.076.183-6.175 2.561-10.789 8.892-14.119 14.106-1.791 3.312-3.577 6.86-4.071 10.923-.349 3.183.36 5.232 2.17 6.257 1.861.951 4.204-.038 5.124-.513 6.255-3.293 10.626-9.898 14.071-15.936.137-.018 2.018-.072 3.441-.439l.058.019c-.081.273-.816 2.469-.816 2.469-2.184 6.403-3.194 10.758-1.131 13.338 2.947 3.641 7.826-.127 11.796-5.105-.852 5.964 2.239 6.898 4.595 6.441 2.707-.731 5.723-3.623 7.123-5.104-.449 1.738-.327 4.848 2.135 5.159 1.688.312 2.951-.606 4.412-1.393 5.242-2.855 11.518-12.366 13.147-15.116h-2.136c-2.316 3.5-5.263 8.09-8.971 10.268v-.001zM94.809 23.104h6l3.386-5.5h-6.001l-3.385 5.5zM190.65 8.493c-4.575 2.598-9.317 4.281-15.058 3.696-1.591 1.793-3.14 3.641-4.568 5.544 8.057 2.049 16.599-2.507 21.363-6.842 5.039-4.373 7.624-9.88 7.624-9.88s-3.778 4.317-9.361 7.482zm-50.45-1.39c-.954 10.941-9.459 17.364-11.563 17.875-1.275.256-3.451-.311-1.509-4.903 2.861-6.185 7.745-11.435 12.985-14.125.128.458.125.75.087 1.152zm-16.572 27.572c-.609-1.317-2.056-2.159-3.597-2.067-5.006.458-9.902 4.574-12.473 10.484-1.349 3.038-2.085 5.544-2.568 9.532 1.557-1.792 4.732-4.738 8.335-6.348 0 0 .49-3.824 2.99-7.227.946-1.409 2.839-3.678 4.965-3.074 1.857.623 1.204 5.764-1.264 10.739-1.827 3.66-4.622 7.32-7.45 9.844-2.5 2.122-6.199 4.684-9.436 2.708-2.038-1.207-3.078-3.732-2.858-6.989.974-9.239 5.18-17.107 11.198-26.072 6.206-8.325 13.047-16.869 22.263-21.426 1.879-.951 3.62-1.171 5.125-.585 0 0-8.651 4.757-12.775 13.558-1.049 2.232-2.508 5.25-1.039 7.922.768 1.39 2.131 1.5 3.229 1.427 5.054-1.171 8.32-5.892 10.989-10.209 1.547-3.275 2.922-6.532 2.922-10.155 0-.439-.023-1.024-.06-1.464 2.414-1.28 7.366.988 7.366.988 3.87 1.281 12.11 7.594 14.889 8.801 1.356-1.573 3.584-3.951 4.839-5.141l-1.816-1.116c-2.908-1.775-5.981-3.458-9.006-5.123-6.87-3.75-12.462-2.433-15.308-1.408-1.119.402-2.141.75-2.141.75-2.112-2.305-5.576-2.086-8.128-1.464-9.178 2.634-17.7 9.056-26.836 20.199-6.717 8.727-10.884 16.266-13.104 23.712-1.712 5.013-2.232 12.386 1.946 16.759 3.552 3.713 8.263 2.909 11.589 1.574 7.207-3.55 13.684-11.198 16.912-19.998.779-2.616 1.643-6.312.302-9.13v.001zm-79.884-8.489c-.012.037-1.224 2.817-1.224 2.817-.175.146-.452.073-.77 0l-.544-.092c-1.708-.53-2.997-1.665-3.394-3.018-.548-2.635 1.703-4.702 2.695-5.452.951-.659 2.431-1.007 3.29-.329.53.622.73 1.427.73 2.306 0 1.189-.367 2.524-.783 3.769zm-2.604 5.287l-.082.219c-.007 0-2.755 4.482-2.755 4.482-1.659 2.214-3.729 4.996-6.318 6.331-.767.256-1.828.421-2.368-.255-1.146-1.372-.555-3.275-.076-4.812l.17-.549c1.375-3.732 3.558-7.026 5.682-10.082l.107-.036.017.055c1.333 2.561 3.833 3.75 5.702 4.299l.023.055c0 .055-.03.128-.103.292zm34.376-2.945c1.229-1.701 4.807-6.257 5.679-7.025 2.933-2.581 4.106-1.445 4.207-.641a579.574 579.574 0 0 1-9.007 15.57c.006-.018-.951 1.445-.951 1.445-1.342 2.049-2.693 3.805-4.896 5.031-.314.092-.832.129-1.177-.128-.415-.274-.579-.732-.532-1.208.132-1.573 1.734-6.384 6.677-13.044zM45.051 17.404c-3.793-2.488-11.415 2.269-17.52 10.428-5.583 7.319-7.994 15.826-5.37 19.76 3.903 4.629 11.148-2.104 14.229-5.708l.398-.421c2.095-2.251 3.714-4.959 5.281-7.557 0 0 1.44-2.379 1.509-2.489a33.91 33.91 0 0 0 3.17-.768c-.017.055-4.622 7.794-4.152 11.636.146 1.172.035 5.453 4.215 6.752 5.571.934 10.02-3.385 13.944-7.227l1.047-1.005-.221.894c-1.631 5.672.568 6.862 1.943 7.301 4.156 1.208 9.121-4.83 9.137-4.83-.129 1.902-.505 3.475 1.5 4.738 1.892.678 3.808-.355 5.264-1.325 5.244-3.696 9.468-9.48 12.88-14.48h-2.176c-.026 0-5.371 7.747-8.841 9.431-.005 0-.637.324-1.001.068-.45-.385-.273-1.184.005-1.749.017-.037 13.401-23.249 13.401-23.249h-6.319s-.69 1.117-.746 1.19l-.214-.32c-3.915-5.416-12.781 2.914-19.456 12.574-2.57 3.714-5.842 7.897-9.234 10.916 0 0-5.026 4.607-7.173 1.297-.785-1.391-.544-3.424-.101-4.759 2.5-7.117 6.808-13.576 11.711-17.474 1.384-1.079 2.888-1.391 3.635-.933.711.421.826 1.463.376 2.177-1.142-.037-2.056.311-2.8 1.079-1.465 1.537-1.974 3.019-1.508 4.41 2.263 3.22 6.775-3.147 6.557-7.026-.078-1.391-.82-2.708-1.927-3.349-1.65-.988-4.168-.732-5.797.055-2.181.823-5.634 3.695-7.649 5.928-2.537 2.8-6.888 5.91-8.249 5.561.446-1.19 4.121-8.709.255-11.526v-.001zm31.762 40.709c-7.442-4.794-17.542-5.635-33.83-1.116-17.364 4.08-23.154 6.696-30.757 1.445-2.921-2.579-3.968-6.733-3.186-12.715 1.814-9.752 6.715-19.138 15.422-29.548 4.86-5.415 9.367-10.063 15.32-11.929 4.562-1.171 4.136 2.414 3.584 2.927-.582 0-1.561.092-2.317.585-.614.476-2.298 2.013-2.389 4.08-.13 3.165 3.145 2.506 4.558.769 1.523-1.958 3.773-5.708 2.003-9.203-.742-1.244-2.024-2.104-3.616-2.396-5.45-.311-10.527 2.287-15.212 5.159C16.15 13.288 7.954 23.15 3.317 33.945.643 40.458-1.775 49.788 1.85 57.382c2.804 5.269 8.625 8.068 15.57 7.482 4.871-.512 10.76-2.086 14.722-3.036 3.961-.952 24.238-7.922 30.901 4.209 0 0 2.215-4.301 7.752-4.392 4.552-.42 11.119 1.318 15.901 4.83-1.593-2.396-6.11-5.927-9.879-8.361h-.004z" fill="#F40009"/></symbol><symbol viewBox="0 0 540.308 173.219" id="brands--fifa" xmlns="http://www.w3.org/2000/svg"><path d="M0 0v173.203h54.707v-62.538h38.012l14.777-37.858h-52.79V37.663h64.253L132.973 0H0m149.7 0l-.097 173.203h54.073V0H149.7m266.174 116.628l20.83-72.117 21.577 72.117h-42.407zM465.657 0h-56.144l-62.254 173.22h52.261l6.727-23.292h60.921l7.044 23.291h53.862L465.657 0M241.014 0v173.203h54.674v-62.538h37.971l14.883-37.858h-52.854V37.663h64.277L374.085 0H241.013" fill-rule="evenodd" fill="#093697"/></symbol><symbol viewBox="0 0 3000 2933.21" id="brands--mcdonalds" xmlns="http://www.w3.org/2000/svg"><path d="M20 1951.453l106.929 961.757h2746.243L2980 1951.453H20z" fill="#ef3e42"/><path d="M2465.741 2193.191S2326.814 200.264 2027.594 200.264c-352.584 0-368.633 1875.366-368.633 1875.366l-328.61 2.708S1314.3 202.973 961.716 202.973c-299.22 0-438.147 1992.927-438.147 1992.927l-321.89-1.405S417.945 24.524 980.374 21.815c370.038-1.805 512.877 934.574 512.877 934.574S1708.413 20.01 1986.267 20.01c667.853 0 801.364 2174.485 801.364 2174.485l-321.89-1.304z" fill="#febd11"/><path d="M1494.676 2036.91l-164.306 41.428 328.61-2.708-164.304-38.72zm1121.999 117.542l-149.56 40.023h320.586l-171.026-40.023zm-2265.375 0l-149.56 40.023 321.89 1.405-172.33-41.428zM2012.919 113.487c-438.147 0-518.294 1923.414-518.294 1923.414l-1.404-1080.522S1708.383 20 1986.237 20l26.682 93.487z" fill="#ffd420"/><path d="M960.383 118.824c427.414 0 534.242 1918.097 534.242 1918.097l-164.204 41.427S1314.37 202.983 961.687 202.983l-1.304-84.16zM351.3 2154.452S527.642 118.794 960.373 118.794l19.961-96.998c-562.429 2.708-778.594 2172.68-778.594 2172.68l149.56-40.024zm2265.375 0S2456.382 113.477 2012.919 113.477l14.745 86.867c299.12 0 438.047 1992.827 438.047 1992.827l150.964-38.719z" fill="#ffd420"/><path d="M2823.732 2359.001l-10.432-47.145v47.145h-11.937v-58.28h17.453l10.934 44.738 10.833-44.737h17.554V2359H2846.1v-47.145L2835.668 2359h-11.936zm-28.729-58.249v10.03h-17.052v48.25h-11.937v-48.25h-17.654v-10.03h46.643zM995.631 2428.585h37.215c84.66 0 92.083 57.176 92.083 77.739 0 30.694-10.633 81.45-83.557 81.45h-45.74v-159.189zm-102.013 222.986h153.27c120.07 0 175.942-56.173 175.942-144.545 0-72.623-40.525-143.641-155.177-143.641H893.618v288.186zm1631.857-290.132h74.328l-24.676 84.058h-49.652v-84.058zm-1096.08 163.272c0 28.688-5.617 67.407-47.747 67.407s-47.747-38.72-47.747-67.407c0-28.689 5.618-66.906 47.747-66.906 42.13 0 47.747 38.217 47.747 66.906m90.98-.1c0-69.715-43.233-131.706-139.028-131.706-95.895 0-139.128 61.99-139.128 131.705 0 69.815 43.233 132.307 139.128 132.307 95.795 0 139.028-62.492 139.028-132.307m27.334 128.164h88.472v-126.99c0-38.519 24.174-46.443 39.922-46.443 26.883 0 38.619 19.56 38.619 47.446v126.088l89.475-.1v-165.008c0-45.039-35.61-81.55-88.672-81.651-36.613 0-65.903 12.538-83.056 36.612v-30.594h-84.76v240.64zm530.61-154.776c-1.905-28.788-.2-97.299-115.153-97.299-57.076 0-119.668 14.645-119.668 82.253h85.864c.501-10.231 8.225-28.387 31.096-28.387 14.745 0 29.089 9.63 29.791 25.78.301 8.024-13.441 15.547-26.18 15.346-52.06-.902-132.407 6.42-132.407 84.059 0 50.555 36.21 76.836 82.553 76.836 29.692 0 52.462-8.927 72.724-27.485l4.514 1.806c-.502 6.42-1.405 13.14.903 19.66h87.67c-6.32-16.952-1.706-35.71-1.706-53.865v-98.704zm-87.769 61.69c-.903 14.545-22.87 34.606-42.13 34.506-16.751 0-25.478-9.73-25.478-20.864 0-16.25 3.712-27.384 21.968-31.096 12.538-2.507 30.092-4.513 45.64-4.814v22.268zm126.99-198.28h91.783v291.196h-91.782v-291.196zm296.612 170.043c0 28.688-8.024 59.684-43.734 59.684-35.61 0-43.634-30.996-43.634-59.684 0-28.186 8.024-59.182 43.634-59.182 35.71 0 43.734 30.996 43.734 59.182m85.864-170.023h-88.371v69.113h-1.003c-13.843-20.463-42.03-27.986-69.414-27.986-80.648 0-105.925 73.125-105.925 129.699 0 70.316 31.095 125.987 104.822 125.786 44.938-.2 58.88-17.152 70.416-32.5h.903v26.482h88.572v-290.594zm301.598 118.746c-1.806-75.834-63.596-81.952-112.346-83.156-38.318-.903-107.23 13.843-107.23 77.538 0 43.233 26.582 66.605 92.284 79.244 40.124 7.724 43.634 16.05 44.236 26.883.702 14.544-14.344 23.672-25.679 23.672-10.432 0-18.657-2.909-23.07-7.222-6.52-6.32-10.232-18.055-10.734-26.782h-86.666c1.304 65.1 41.026 88.873 117.16 88.973 54.869 0 119.367-17.754 119.367-87.87 0-36.512-24.676-56.574-59.382-65.702-29.692-7.824-57.778-12.338-72.122-19.159-4.815-2.407-12.639-9.128-12.639-16.45 0-16.551 14.444-19.16 26.08-19.46 7.022-.2 13.943-.502 19.159 4.414 5.718 4.313 9.63 16.851 10.03 25.077h81.552zm-2612.03 170.243h92.684s21.466-136.82 22.269-148.356l51.057 148.356h79.544l52.06-148.356 16.35 148.356h99.807l-50.154-289.69H440.254s-40.124 128.695-42.13 141.334h-2.808l-42.13-141.335H238.935l-49.352 289.691zm669.437-155.358c-5.517-66.303-59.382-97.399-122.376-97.399-72.322 0-130 50.555-130.3 126.59-.302 94.991 57.978 132.306 130.3 132.306 64.9 0 116.458-20.162 125.185-104.421h-87.67c-1.805 19.058-9.228 40.224-35.71 40.224-40.524 0-40.323-38.92-40.323-68.11 0-29.19 1.003-65 36.21-65 9.73 0 22.17 3.912 27.786 9.028 6.019 5.116 8.827 17.052 9.73 26.782h87.168z" fill="#fff"/></symbol><symbol viewBox="0 0 70 51" fill="none" id="brands--megafon" xmlns="http://www.w3.org/2000/svg"><path d="M36.95.78v16.5a1.29 1.29 0 0 1-.388.917 1.309 1.309 0 0 1-.922.374h-2l-.069.014-.058.039-.039.058-.014.069v13.84l1.48.07a16.003 16.003 0 0 0 16.013-14.998A16.003 16.003 0 0 0 36.94.781h.01zm-.33 24.61a2 2 0 1 1 2-2 2 2 0 0 1-2 1.99v.01zm4.69 0a1.997 1.997 0 0 1-1.848-1.235 2.007 2.007 0 0 1 .433-2.18 1.997 1.997 0 0 1 2.18-.433 2.003 2.003 0 0 1 1.235 1.848 2 2 0 0 1-2 1.99v.01zm4.69 0a2 2 0 1 1 2-2 2 2 0 0 1-2 1.99v.01zM35 .66a15.999 15.999 0 0 0-12.995 25.37A15.998 15.998 0 0 0 31.6 32.3V17.94a1.3 1.3 0 0 1 1.26-1.28h2l.124-.049.056-.121V.66H35zm-3.09 13.19a2 2 0 1 1 0-3.998 2 2 0 0 1 0 3.998zm36.01 28.7v2.98h-4v-2.98h-1.97v7.87h1.97v-3.18h4v3.18h1.97v-7.87h-1.97zm-32.84.88a1.784 1.784 0 0 0-1.62-1.061 1.78 1.78 0 0 0-1.62 1.061l-3.23 7h2.1l.7-1.66h4.09l.7 1.66h2.1l-3.22-7zm-3 3.76l1.21-2.86.063-.08.097-.03.097.03.063.08 1.21 2.86h-2.74zm-20.46-6.06a1.995 1.995 0 0 0-2 1.48l-2.57 5.92-2.57-5.92a2.003 2.003 0 0 0-2-1.48 1.783 1.783 0 0 0-1.695 1.256 1.784 1.784 0 0 0-.065.744v7.33h2v-7.17l2.59 5.87a1.871 1.871 0 0 0 1.72 1.34 1.871 1.871 0 0 0 1.72-1.34l2.59-5.87v7.13h2v-7.33a1.789 1.789 0 0 0-.433-1.355 1.77 1.77 0 0 0-1.288-.605zm5.21 7.63l-.12-.05-.05-.12v-1.4h4.92v-1.6h-4.92v-1.2l.05-.12.12-.05h4.86v-1.67h-5.83a1.18 1.18 0 0 0-1.17 1.17v5.52a1.18 1.18 0 0 0 1.17 1.17h5.83v-1.65h-4.86zM25 50.42v-6l.05-.12.12-.05h4.86v-1.7h-5.8a1.18 1.18 0 0 0-1.17 1.17v6.7H25zm35.64-3.95c0-2.75-1.18-4-4.17-4h-.69c-3 0-4.17 1.29-4.17 4s1.21 4 4.19 4h.66c3 0 4.19-1.31 4.19-4h-.01zm-4.2 2.4h-.63c-1.65 0-2.28-.74-2.28-2.39 0-1.6.56-2.38 2.28-2.38h.63c1.67 0 2.28.79 2.28 2.38 0 1.65-.65 2.39-2.28 2.39zm-10.33-7.56H42.2c-2.91 0-4.08 1.47-4.08 4-.005.375.022.75.08 1.12.31 1.82 1.38 2.94 4.11 2.94h.86v1h2v-1H46c2.73 0 3.8-1.12 4.11-2.94.058-.37.085-.745.08-1.12 0-2.52-1.19-4-4.08-4zm-2.94 6.44h-.9c-1.33 0-1.82-.5-2.11-1.28a3.268 3.268 0 0 1-.16-1.11c0-1.68.82-2.36 2-2.36h1.21l-.04 4.75zm5-1.28c-.29.78-.77 1.28-2.11 1.28h-.9V43h1.21c1.14 0 1.91.71 1.91 2.39.017.365-.027.73-.13 1.08h.02z" fill="#53925B"/></symbol><symbol fill="none" viewBox="0 0 109 102" id="brands--sberbank" xmlns="http://www.w3.org/2000/svg"><path d="M98.64 100.041a.605.605 0 0 1-.159-.358 5.041 5.041 0 0 1-.032-.614v-1.13h.001v-9.01h-.001v-1.13a4.838 4.838 0 0 1 .032-.614.605.605 0 0 1 .159-.358.817.817 0 0 1 .36-.191l.272-.084v-.474h-4.797v.474l.272.085a.805.805 0 0 1 .36.19.605.605 0 0 1 .159.358c.024.204.034.409.032.614v11.27c.002.205-.008.41-.032.614a.594.594 0 0 1-.159.358.762.762 0 0 1-.36.19l-.272.085v.474h4.797v-.474l-.272-.085a.758.758 0 0 1-.36-.19zm8.18-.814a144.94 144.94 0 0 1-2.473-2.77c-.395-.45-.769-.894-1.121-1.332a27.724 27.724 0 0 1-1.005-1.319c-.316-.445-.63-.922-.941-1.429l.232-.296c.352-.451.768-.969 1.248-1.554.478-.585.972-1.162 1.48-1.733a27.683 27.683 0 0 1 1.521-1.586c.42-.415.88-.787 1.375-1.109v-.021h-3.445a9.03 9.03 0 0 1-.52 1.087c-.23.43-.504.892-.811 1.384-.311.493-.634 1.006-.974 1.534a42.139 42.139 0 0 1-1.014 1.511l-.941 1.332c-.289.407-.532.737-.729.992l.962 1.31.823 1.13.762 1.058.771 1.09c.282.395.533.782.752 1.161.218.381.419.755.603 1.121l4.967.043a82.789 82.789 0 0 1-1.522-1.606zm-38.136-4.736l2.03-5.942 1.987 5.942h-4.017zm8.266 3.001l-3.363-9.638a7.19 7.19 0 0 1-.305-1.068l-.118-.707H68.96v.474l.273.084a.813.813 0 0 1 .359.191.6.6 0 0 1 .16.358l.026.322a2.86 2.86 0 0 1-.185.959l-2.346 5.813c-.436 1.087-.81 1.995-1.12 2.727a116.12 116.12 0 0 1-.793 1.838c-.219.494-.409.89-.571 1.186-.162.295-.306.55-.434.76h2.665a15.38 15.38 0 0 1 .328-1.807c.19-.852.532-2.026 1.026-3.521h4.671l.633 1.883c.281.843.508 1.557.676 2.133.138.428.237.867.296 1.312h3.743a30.275 30.275 0 0 1-.581-1.194c-.232-.5-.512-1.201-.835-2.104zm14.924-11.414h-3.972v.474l.272.085a.815.815 0 0 1 .36.19.608.608 0 0 1 .159.358c.024.204.034.409.032.615v4.704h-5.687V87.8a4.684 4.684 0 0 1 .032-.615.61.61 0 0 1 .158-.358.82.82 0 0 1 .361-.191l.272-.084v-.474h-4.796v.474l.273.085a.821.821 0 0 1 .359.19.607.607 0 0 1 .16.358c.023.196.033.392.031.589v.34l.001.013v10.148l-.001.054v.767c.002.196-.008.392-.031.587a.61.61 0 0 1-.159.358.776.776 0 0 1-.36.19l-.273.085v.474h4.796v-.474l-.272-.085a.78.78 0 0 1-.361-.19.604.604 0 0 1-.158-.358 4.67 4.67 0 0 1-.032-.614v-5.595h5.687v5.595c.002.205-.008.41-.032.614a.61.61 0 0 1-.159.358.776.776 0 0 1-.36.19l-.272.085v.474h4.796v-.474l-.273-.085a.776.776 0 0 1-.36-.19.598.598 0 0 1-.158-.358 4.848 4.848 0 0 1-.032-.614v-2.94l-.022.065v-5.52l.021.063v-2.938a4.84 4.84 0 0 1 .033-.614.607.607 0 0 1 .158-.358.817.817 0 0 1 .36-.191l.273-.084v-.474h-.824zM60.683 98.084c-.12.433-.341.832-.645 1.164-.25.258-.57.437-.92.516-.35.079-.708.119-1.067.117a3.62 3.62 0 0 1-.824-.072.927.927 0 0 1-.455-.245.824.824 0 0 1-.201-.442 4.958 4.958 0 0 1-.041-.699v-6.151h1.266a2.957 2.957 0 0 1 2.422.877c.545.851.794 1.858.709 2.865a6.992 6.992 0 0 1-.245 2.071zm2.093-5.697a5.275 5.275 0 0 0-2.009-.783 16.004 16.004 0 0 0-3.012-.241H56.53v-3.51c0-.381.076-.62.232-.719.308-.127.642-.177.973-.148h1.774c.449-.005.897.016 1.343.063.305.028.599.13.856.297.244.177.435.419.551.697.173.404.314.821.422 1.246h.783v-3.212H52.558v.474l.272.085a.815.815 0 0 1 .36.19.6.6 0 0 1 .159.358c.023.204.034.409.031.614v2.938l.001-.001v5.395l-.001-.002v2.94a5.04 5.04 0 0 1-.031.614.6.6 0 0 1-.159.358.776.776 0 0 1-.36.19l-.272.085v.474h5.536c.753.001 1.505-.042 2.254-.128a5.051 5.051 0 0 0 1.976-.622 3.643 3.643 0 0 0 1.394-1.479 5.76 5.76 0 0 0 .528-2.696 5.517 5.517 0 0 0-.348-2.082 3.093 3.093 0 0 0-1.12-1.396zm-15.494.656a1.97 1.97 0 0 1-1.893 1.003H43.91v-6.258a2.072 2.072 0 0 1 .03-.369.444.444 0 0 1 .148-.254.803.803 0 0 1 .361-.138 4.11 4.11 0 0 1 .665-.041c.362-.003.722.047 1.069.148.327.098.625.276.866.517.265.278.46.615.57.983.147.5.215 1.021.201 1.542a6.206 6.206 0 0 1-.537 2.865zm2.176-6.299a4.465 4.465 0 0 0-1.723-.549 17.05 17.05 0 0 0-2.008-.116h-5.813v.474l.273.085a.807.807 0 0 1 .36.191.617.617 0 0 1 .159.358c.023.204.034.409.031.614v11.27a5.04 5.04 0 0 1-.031.614.61.61 0 0 1-.159.358.776.776 0 0 1-.36.19l-.273.085v.474h4.817v-.474l-.272-.085a.758.758 0 0 1-.36-.19.607.607 0 0 1-.16-.358 4.846 4.846 0 0 1-.03-.614v-4.113h1.458a13.58 13.58 0 0 0 2.178-.17 4.943 4.943 0 0 0 1.827-.666c.54-.345.975-.832 1.258-1.407.342-.755.501-1.58.466-2.408a4.971 4.971 0 0 0-.443-2.283 3.11 3.11 0 0 0-1.196-1.279zM36.689 98.741a1.587 1.587 0 0 1-.453.76 1.534 1.534 0 0 1-.837.317c-.495.048-.992.069-1.489.063-.463.006-.925-.015-1.385-.063-.264-.02-.52-.1-.749-.233a.742.742 0 0 1-.318-.495 4.418 4.418 0 0 1-.063-.836v-4.63h1.986l.603.022c.232.014.471.034.716.063.24.028.478.074.711.138.201.053.392.135.569.243v-1.882a1.895 1.895 0 0 1-.569.232 6.562 6.562 0 0 1-.711.138 5.914 5.914 0 0 1-.716.064l-.603.012h-1.986V87.77a1.003 1.003 0 0 1 .137-.635.81.81 0 0 1 .581-.148h1.586c.449-.005.897.016 1.343.063.305.028.598.13.854.297.244.177.435.419.551.697.174.404.315.82.423 1.246h.783v-3.212H27.442v.474l.273.085a.815.815 0 0 1 .36.19.61.61 0 0 1 .159.358c.023.204.033.409.031.614v11.27a5.04 5.04 0 0 1-.031.614.616.616 0 0 1-.158.358.78.78 0 0 1-.361.19l-.273.085v.474h10.549v-3.424h-.973c-.085.464-.195.922-.329 1.374zm-14.521-.656c-.12.433-.341.832-.645 1.164-.25.257-.57.437-.921.516-.35.079-.708.118-1.067.117a3.687 3.687 0 0 1-.825-.072.92.92 0 0 1-.453-.245.815.815 0 0 1-.202-.442 4.951 4.951 0 0 1-.043-.699v-6.152h1.27a2.95 2.95 0 0 1 2.421.877c.545.851.793 1.858.707 2.865a7.098 7.098 0 0 1-.242 2.071zm2.093-5.697a5.296 5.296 0 0 0-2.008-.783 16.015 16.015 0 0 0-3.013-.241h-1.227v-3.51c0-.381.078-.621.234-.719.308-.127.641-.177.973-.148h1.776c.448-.005.896.016 1.341.063.305.028.599.13.857.297.243.178.433.419.549.697.173.404.314.821.423 1.246h.782v-3.212H14.042v.474l.272.085a.815.815 0 0 1 .36.19.61.61 0 0 1 .159.358c.023.197.034.395.032.593v2.96l.001-.001v5.394l-.001-.001v2.96c.002.198-.009.396-.032.593a.61.61 0 0 1-.159.358.776.776 0 0 1-.36.19l-.273.085v.474h5.537c.752.001 1.503-.042 2.251-.128a5.034 5.034 0 0 0 1.977-.622 3.63 3.63 0 0 0 1.396-1.479 5.76 5.76 0 0 0 .529-2.696c.019-.71-.1-1.417-.35-2.082a3.093 3.093 0 0 0-1.12-1.396zM11.44 99.195a6.612 6.612 0 0 1-.772.285c-.307.093-.622.16-.94.202a8.669 8.669 0 0 1-1.226.073 4.303 4.303 0 0 1-2.21-.506 3.617 3.617 0 0 1-1.341-1.395 6.259 6.259 0 0 1-.667-2.093 17.968 17.968 0 0 1-.18-2.622c0-.731.035-1.475.106-2.23.056-.7.227-1.385.506-2.029a3.615 3.615 0 0 1 1.185-1.469 3.533 3.533 0 0 1 2.134-.569 3.471 3.471 0 0 1 2.124.663 2.958 2.958 0 0 1 1.111 2.02h.928v-2.939a5.48 5.48 0 0 0-.94-.328 9.23 9.23 0 0 0-1.131-.211 24.62 24.62 0 0 0-1.163-.117c-.38-.026-.725-.041-1.035-.041a9.259 9.259 0 0 0-3.319.528 5.6 5.6 0 0 0-2.252 1.533 6.251 6.251 0 0 0-1.288 2.452 11.991 11.991 0 0 0-.413 3.286 10.82 10.82 0 0 0 .413 3.109 6.076 6.076 0 0 0 1.266 2.334 5.514 5.514 0 0 0 2.169 1.47 8.663 8.663 0 0 0 3.13.506 10.01 10.01 0 0 0 1.668-.126 9.55 9.55 0 0 0 2.495-.761c.324-.154.606-.302.845-.443l-.466-.908-.739.326m27.61-50.903L15.199 34.574c-.046.687-.075 1.38-.087 2.078a39.931 39.931 0 0 0 .654 7.693 39.322 39.322 0 0 0 15.897 24.946 39.576 39.576 0 0 0 14.682 6.456c2.319.487 4.677.765 7.045.83h2.194a39.436 39.436 0 0 0 25.803-10.6 39.426 39.426 0 0 0 12.129-23.32 39.933 39.933 0 0 0 .36-6.486 39.733 39.733 0 0 0-4.32-16.93L39.047 48.293zm0-9.913L16.847 25.614a39.135 39.135 0 0 0-1.071 4.339l23.271 13.388L87.394 15.53a40.94 40.94 0 0 0-1.494-2.109c-.229-.3-.462-.597-.7-.89l-.387-.473-45.766 26.321zm0-9.902l-18.76-10.794a39.341 39.341 0 0 0-1.927 3.847l20.687 11.896L81.815 8.829a39.718 39.718 0 0 0-3.462-2.963l-39.305 22.61zm0-9.912l-13.682-7.87a39.749 39.749 0 0 0-2.742 3.372l16.424 9.453L74.373 3.201A39.311 39.311 0 0 0 69.771.894L39.049 18.565z" fill="#1C9F49"/></symbol><symbol viewBox="0 0 355 140" id="brands--tele2" xmlns="http://www.w3.org/2000/svg"><path fill="#141414" d="M5 51.346V70.12l50.646-5.571v-20.32L5 51.346m16.162 19.916v64.333h18.542V69.367l-18.542 1.895m41.324-27.994v92.327h19.538V40.521l-19.538 2.747m23.178-3.259v21.239l28.213-3.104V36.045l-28.213 3.964m0 37.047v21.626l18.52-1.01v-22.21l-18.52 1.594m0 37.214v21.325h28.213v-22.176l-28.213.851m101.175-88.512v109.837h25.613V22.158l-25.613 3.6m30.396-4.273V46.75l37.326-4.104V16.238l-37.326 5.247m0 44.266v25.733l24.465-1.336V63.656l-24.465 2.095m0 44.542v25.302h37.326v-26.429l-37.326 1.127m-95.893-75.299v100.601h22.256V31.865l-22.256 3.129m26.41 77.403v23.197h32.306v-24.172l-32.306.975m190.492-97.401c-8.095-7.648-19.964-10.785-32.946-8.92v28.022c5.257-.292 9.517 1.659 11.415 5.587 2.997 6.193-.095 15.485-7.389 24.094-11.258 13.285-41.195 40.477-41.195 40.477l42.976-1.413c26.259-25.654 35.689-41.226 37.381-60.661.889-10.282-2.843-20.189-10.242-27.186M350 135.595v-29.321l-87.168 2.626m0-.001l.009 26.695H350M300.287 6.705c-25.323 5.393-37.758 24.023-36.323 54.422l27-2.396c-1.23-17.174 4.023-21.248 9.336-23.488l-.013-28.538"/></symbol><symbol overflow="visible" viewBox="0 0 382.499 104.595" id="brands--vtb24" xmlns="http://www.w3.org/2000/svg"><switch><g><path fill="#0A2972" d="M113.134 34.834h-1.092v69.617h28.05c13.051 0 21.483-7.822 21.483-19.926 0-6.053-1.939-10.385-6.285-14.043-1.586-1.343-3.35-2.279-5.189-3.027 1.416-.7 2.768-1.524 3.961-2.6 3.209-2.992 4.897-7.162 4.897-12.076 0-5.078-1.884-9.278-5.759-12.841-4.724-4.251-10.143-5.104-17.357-5.104h-22.709zm21.158 13.703c1.172 0 3.357 0 5.178.783 1.973.841 3.198 3.054 3.198 5.787 0 1.859-.63 3.695-1.641 4.788-1.571 1.743-3.41 1.883-5.478 1.883h-7.985V48.537h6.728zm1.93 26.6c2.032 0 4.131.21 5.719 1.727 1.326 1.251 2.179 3.609 2.179 6.008 0 2.007-.598 4.008-1.64 5.489-1.723 2.369-3.598 2.833-6.257 2.833h-8.467V75.137h8.466zm81.433-40.303h-55.322v13.373l19.539.037v56.351h15.708V48.228c1.91-.006 17.111 0 17.111 0l4.527-13.394h-1.563zm50.96 0h-45.563v69.707h26.061c5.902 0 11.441-1.485 15.193-4.077 3.849-2.633 8.443-7.86 8.443-17.803 0-9.325-4.456-14.335-7.107-16.492-2.834-2.286-8.099-5.01-17.107-5.01h-9.81v-12.92h26.368l4.613-13.405h-1.091zm-22.026 39.594c2.205 0 4.297.54 5.584 1.452 2.047 1.429 3.039 3.646 3.039 6.781 0 3.296-.971 4.895-1.704 5.81-1.385 1.751-3.491 2.601-6.438 2.601h-8.346V74.428h7.865z"/><path fill="#FC1921" d="M282.896 37.874l-.499.257c-.002.581-.007 13.438-.008 14.909.775-.378 1.919-.933 1.919-.933 1.386-.83 8.829-5.094 15.55-5.443 2.773-.146 5.26.684 7 2.336 1.422 1.348 2.205 3.153 2.205 5.083 0 6.395-4.43 9.617-9.781 12.881-13.145 7.881-21.291 16.095-21.291 32.676l.02 4.781 43.707-.007c.001-.936-.002-12.509 0-13.447h-27.071l.161-.649c1.104-4.429 3.9-7.794 9.353-11.256l6.8-4.196c7.992-4.894 13.057-12.994 13.218-21.144v-.486c0-5.428-1.813-10.143-5.244-13.642-4.013-4.098-9.872-6.262-16.946-6.262-6.163 0-13.656 1.783-19.093 4.542zm70.432-3.125c-.305.473-27.87 43.685-28.034 43.94v12.258h31.09v13.607h13.015V90.947h8.573l4.527-13.426h-13.101v-13.75h-13.015v13.75h-15.359c1.11-1.895 23.406-36.961 27.121-42.772h-14.817z"/><path fill="#0A2972" d="M64.614 34.831H11.653s1.597 5.121 3.449 7.742h47.121s8.993 7.049 13.295 19.371h-49.53c-8.546-6.97-14.946-16.391-18.307-27.113a55.175 55.175 0 0 1 1.417-3.868h55.491c4.327-3.008 8.627-7.743 8.627-7.743H12.98a56.567 56.567 0 0 1 2.55-3.866h60.836c1.606-1.947 4.833-7.743 4.833-7.743H22.24a56.71 56.71 0 0 1 4.456-3.868h56.312C84.551 4.046 85.652 0 85.652 0H24.484C12.796 8.32 3.983 20.51 0 34.831c3.949 14.161 12.681 26.448 24.455 34.846h61.037s-1.073-18.531-20.878-34.846z"/></g></switch></symbol><symbol viewBox="0 0 24 24" id="socials--instagram" xmlns="http://www.w3.org/2000/svg"><path d="M12 0C8.74 0 8.333.015 7.053.072 5.775.132 4.905.333 4.14.63c-.789.306-1.459.717-2.126 1.384S.935 3.35.63 4.14C.333 4.905.131 5.775.072 7.053.012 8.333 0 8.74 0 12s.015 3.667.072 4.947c.06 1.277.261 2.148.558 2.913a5.885 5.885 0 0 0 1.384 2.126A5.868 5.868 0 0 0 4.14 23.37c.766.296 1.636.499 2.913.558C8.333 23.988 8.74 24 12 24s3.667-.015 4.947-.072c1.277-.06 2.148-.262 2.913-.558a5.898 5.898 0 0 0 2.126-1.384 5.86 5.86 0 0 0 1.384-2.126c.296-.765.499-1.636.558-2.913.06-1.28.072-1.687.072-4.947s-.015-3.667-.072-4.947c-.06-1.277-.262-2.149-.558-2.913a5.89 5.89 0 0 0-1.384-2.126A5.847 5.847 0 0 0 19.86.63c-.765-.297-1.636-.499-2.913-.558C15.667.012 15.26 0 12 0zm0 2.16c3.203 0 3.585.016 4.85.071 1.17.055 1.805.249 2.227.415.562.217.96.477 1.382.896.419.42.679.819.896 1.381.164.422.36 1.057.413 2.227.057 1.266.07 1.646.07 4.85s-.015 3.585-.074 4.85c-.061 1.17-.256 1.805-.421 2.227a3.81 3.81 0 0 1-.899 1.382 3.744 3.744 0 0 1-1.38.896c-.42.164-1.065.36-2.235.413-1.274.057-1.649.07-4.859.07-3.211 0-3.586-.015-4.859-.074-1.171-.061-1.816-.256-2.236-.421a3.716 3.716 0 0 1-1.379-.899 3.644 3.644 0 0 1-.9-1.38c-.165-.42-.359-1.065-.42-2.235-.045-1.26-.061-1.649-.061-4.844 0-3.196.016-3.586.061-4.861.061-1.17.255-1.814.42-2.234.21-.57.479-.96.9-1.381.419-.419.81-.689 1.379-.898.42-.166 1.051-.361 2.221-.421 1.275-.045 1.65-.06 4.859-.06l.045.03zm0 3.678a6.162 6.162 0 1 0 0 12.324 6.162 6.162 0 1 0 0-12.324zM12 16c-2.21 0-4-1.79-4-4s1.79-4 4-4 4 1.79 4 4-1.79 4-4 4zm7.846-10.405a1.441 1.441 0 0 1-2.88 0 1.44 1.44 0 0 1 2.88 0z"/></symbol><symbol viewBox="0 0 24 24" id="socials--vk" xmlns="http://www.w3.org/2000/svg"><path d="M11.701 18.771h1.437s.433-.047.654-.284c.21-.221.21-.63.21-.63s-.031-1.927.869-2.21c.887-.281 2.012 1.86 3.211 2.683.916.629 1.605.494 1.605.494l3.211-.044s1.682-.105.887-1.426c-.061-.105-.451-.975-2.371-2.76-2.012-1.861-1.742-1.561.676-4.787 1.469-1.965 2.07-3.166 1.875-3.676-.166-.48-1.26-.361-1.26-.361l-3.602.031s-.27-.031-.465.09c-.195.119-.314.391-.314.391s-.572 1.529-1.336 2.82c-1.623 2.729-2.268 2.879-2.523 2.699-.604-.391-.449-1.58-.449-2.432 0-2.641.404-3.75-.781-4.035-.39-.091-.681-.15-1.685-.166-1.29-.014-2.378.01-2.995.311-.405.203-.72.652-.539.675.24.03.779.146 1.064.537.375.506.359 1.636.359 1.636s.211 3.116-.494 3.503c-.495.262-1.155-.28-2.595-2.756-.735-1.26-1.291-2.67-1.291-2.67s-.105-.256-.299-.406c-.227-.165-.557-.225-.557-.225l-3.435.03s-.51.016-.689.24c-.166.195-.016.615-.016.615s2.686 6.287 5.732 9.453c2.79 2.902 5.956 2.715 5.956 2.715l-.05-.055z"/></symbol><symbol viewBox="0 0 24 24" id="socials--whatsapp" xmlns="http://www.w3.org/2000/svg"><path d="M17.498 14.382c-.301-.15-1.767-.867-2.04-.966-.273-.101-.473-.15-.673.15-.197.295-.771.964-.944 1.162-.175.195-.349.21-.646.075-.3-.15-1.263-.465-2.403-1.485-.888-.795-1.484-1.77-1.66-2.07-.174-.3-.019-.465.13-.615.136-.135.301-.345.451-.523.146-.181.194-.301.297-.496.1-.21.049-.375-.025-.524-.075-.15-.672-1.62-.922-2.206-.24-.584-.487-.51-.672-.51-.172-.015-.371-.015-.571-.015-.2 0-.523.074-.797.359-.273.3-1.045 1.02-1.045 2.475s1.07 2.865 1.219 3.075c.149.195 2.105 3.195 5.1 4.485.714.3 1.27.48 1.704.629.714.227 1.365.195 1.88.121.574-.091 1.767-.721 2.016-1.426.255-.705.255-1.29.18-1.425-.074-.135-.27-.21-.57-.345m-5.446 7.443h-.016c-1.77 0-3.524-.48-5.055-1.38l-.36-.214-3.75.975 1.005-3.645-.239-.375a9.869 9.869 0 0 1-1.516-5.26c0-5.445 4.455-9.885 9.942-9.885a9.865 9.865 0 0 1 7.021 2.91 9.788 9.788 0 0 1 2.909 6.99c-.004 5.444-4.46 9.885-9.935 9.885M20.52 3.449C18.24 1.245 15.24 0 12.045 0 5.463 0 .104 5.334.101 11.893c0 2.096.549 4.14 1.595 5.945L0 24l6.335-1.652a12.062 12.062 0 0 0 5.71 1.447h.006c6.585 0 11.946-5.336 11.949-11.896 0-3.176-1.24-6.165-3.495-8.411"/></symbol><symbol viewBox="0 0 24 24" id="socials--youtube" xmlns="http://www.w3.org/2000/svg"><path d="M23.495 6.205a3.007 3.007 0 0 0-2.088-2.088c-1.87-.501-9.396-.501-9.396-.501s-7.507-.01-9.396.501A3.007 3.007 0 0 0 .527 6.205a31.247 31.247 0 0 0-.522 5.805 31.247 31.247 0 0 0 .522 5.783 3.007 3.007 0 0 0 2.088 2.088c1.868.502 9.396.502 9.396.502s7.506 0 9.396-.502a3.007 3.007 0 0 0 2.088-2.088 31.247 31.247 0 0 0 .5-5.783 31.247 31.247 0 0 0-.5-5.805zM9.609 15.601V8.408l6.264 3.602z"/></symbol></svg>